<svg xmlns="http://www.w3.org/2000/svg" viewBox="0 0 256 256"><path fill-opacity="0" stroke-linecap="round" stroke-linejoin="round" stroke="#769086" stroke-opacity="1" stroke-width="3" d="M45.7,130.9h21V91.5h37.2V72H66.7V35.5h-21V72H10v19.5h35.7V130.9z" style="stroke-dasharray: 379, 379; stroke-dashoffset: 0;"></path><path fill-opacity="0" stroke-linecap="round" stroke-linejoin="round" stroke="#7178ad" stroke-opacity="1" stroke-width="3" d="M223.6,80.1l-38.5-38.6c0,0,22.8-26.3,41.9-7.3C246,53.2,230.3,72.2,223.6,80.1 M100.5,204.1l-12.9-21.8L198.1,71l18.4,16.2L100.5,204.1z M63.5,219.4l-18.7-20.1l10-26.8c0,0,25.7,5,36.3,36.3L63.5,219.4z M177.2,47.1l16.2,18.4L82.3,176.2l-21.8-12.9L177.2,47.1z M233.1,27.2c-29-24-55.8,8.4-55.8,8.4l-131.8,128l-16.8,74l76-23.7L233.1,85.4C233.1,85.4,262.1,51.3,233.1,27.2z" style="stroke-dasharray: 1687, 1687; stroke-dashoffset: 0;"></path></svg>