<svg width="100" height="100" viewBox="0 0 100 100" fill="none" xmlns="http://www.w3.org/2000/svg">
<path d="M37.5 54.1666L62.5 54.1666" stroke="#33363F" stroke-width="6" stroke-linecap="round"/>
<path d="M37.5 37.5L54.1667 37.5" stroke="#33363F" stroke-width="6" stroke-linecap="round"/>
<path d="M37.5 70.8334L54.1667 70.8334" stroke="#33363F" stroke-width="6" stroke-linecap="round"/>
<path d="M79.1667 54.1667V75.5C79.1667 81.1569 79.1667 83.9853 77.4093 85.7426C75.652 87.5 72.8235 87.5 67.1667 87.5H32.8333C27.1765 87.5 24.3481 87.5 22.5907 85.7426C20.8333 83.9853 20.8333 81.1569 20.8333 75.5V24.5C20.8333 18.8431 20.8333 16.0147 22.5907 14.2574C24.3481 12.5 27.1765 12.5 32.8333 12.5H45.8333" stroke="#33363F" stroke-width="6"/>
<path d="M75 12.5L75 37.5" stroke="#33363F" stroke-width="6" stroke-linecap="round"/>
<path d="M87.5 25L62.5 25" stroke="#33363F" stroke-width="6" stroke-linecap="round"/>
</svg>
