<svg width="100" height="101" viewBox="0 0 100 101" fill="none" xmlns="http://www.w3.org/2000/svg">
<path d="M18 27.9199C18 25.7108 19.7909 23.9199 22 23.9199H77C79.2091 23.9199 81 25.7108 81 27.9199V86.9199C81 89.1291 79.2091 90.9199 77 90.9199H22C19.7909 90.9199 18 89.1291 18 86.9199V27.9199Z" stroke="#222222" stroke-width="6" stroke-linecap="round" stroke-linejoin="round"/>
<path d="M18 40.9199V47.9199C18 49.0245 18.8954 49.9199 20 49.9199H79C80.1046 49.9199 81 49.0245 81 47.9199V40.9199" stroke="#222222" stroke-width="6" stroke-linecap="round" stroke-linejoin="round"/>
<path d="M72 86.9199L70.0204 74.6026C69.8646 73.6329 69.0278 72.9199 68.0458 72.9199L30.9542 72.9199C29.9722 72.9199 29.1354 73.6329 28.9796 74.6026L27 86.9199" stroke="#222222" stroke-width="6" stroke-linecap="round" stroke-linejoin="round"/>
<path d="M82.2857 50.9199H89C89.5523 50.9199 90 51.3676 90 51.9199V76.9199C90 77.4722 89.5523 77.9199 89 77.9199H81" stroke="#222222" stroke-width="6" stroke-linecap="round" stroke-linejoin="round"/>
<path d="M16.7143 50.9199H10C9.44772 50.9199 9 51.3676 9 51.9199V76.9199C9 77.4722 9.44772 77.9199 10 77.9199H18" stroke="#222222" stroke-width="6" stroke-linecap="round" stroke-linejoin="round"/>
<path d="M32 23.9199V11.9199C32 10.8154 32.8954 9.91992 34 9.91992H65C66.1046 9.91992 67 10.8154 67 11.9199V23.9199" stroke="#222222" stroke-width="6" stroke-linecap="round" stroke-linejoin="round"/>
</svg>
