<svg width="100" height="101" viewBox="0 0 100 101" fill="none" xmlns="http://www.w3.org/2000/svg">
<path d="M50.9406 33.02C53.9172 38.7195 55.4255 45.0712 55.329 51.5003C55.2325 57.9295 53.5342 64.2331 50.3879 69.8406" stroke="#222222" stroke-width="6"/>
<path d="M60.4167 23.8365C48.3511 39.9241 16.8747 50.1884 14.7018 50.8823C14.6578 50.8964 14.6558 50.9517 14.6981 50.9703C16.8381 51.9145 48.344 65.9305 60.4167 78.0032" stroke="#222222" stroke-width="6" stroke-linecap="round"/>
<path d="M55.052 60.3786C53.7504 60.5004 52.4376 60.3523 51.1959 59.9435C49.9542 59.5347 48.8102 58.874 47.8355 58.0028C46.8608 57.1315 46.0764 56.0685 45.5315 54.8802C44.9865 53.6919 44.6926 52.404 44.6683 51.0969C44.6439 49.7898 44.8896 48.4918 45.3899 47.284C45.8903 46.0763 46.6345 44.9848 47.576 44.0778C48.5176 43.1709 49.6362 42.4681 50.8618 42.0133C52.0874 41.5585 53.3938 41.3616 54.699 41.4349" stroke="#222222" stroke-width="6"/>
<path d="M70 50.9199H87" stroke="#222222" stroke-width="6" stroke-linecap="round"/>
<path d="M70 41.9199L87 36.9199" stroke="#222222" stroke-width="6" stroke-linecap="round"/>
<path d="M70 59.9199L87 64.9199" stroke="#222222" stroke-width="6" stroke-linecap="round"/>
</svg>
